<?xml version="1.0" encoding="utf-8"?>
<!-- Generator: Adobe Illustrator 25.0.0, SVG Export Plug-In . SVG Version: 6.00 Build 0)  -->
<svg version="1.1" id="Calque_1" xmlns="http://www.w3.org/2000/svg" xmlns:xlink="http://www.w3.org/1999/xlink" x="0px" y="0px"
	 viewBox="0 0 50 50" style="enable-background:new 0 0 50 50;" xml:space="preserve">
<style type="text/css">
	.st0{fill:#0097EF;}
	.st1{fill:#FEFEFE;}
	.st2{fill:#FED92D;}
	.st3{fill:#00B7EF;}
	.st4{fill:#FBBE01;}
	.st5{fill:#B7DAFE;}
	.st6{fill:#B8DAFE;}
	.st7{fill:#DBF2FE;}
</style>
<g>
	<path class="st0" d="M50,24.9c0,1.1,0,2.1,0,3.2c-0.1,0-0.1,0.1-0.1,0.2c-0.3,2.7-1.2,5.2-2.8,7.5c-0.2,0.3-0.2,0.5-0.1,0.8
		c0.9,2.8,1.8,5.5,2.7,8.3c0.2,0.7,0.2,1.3-0.4,1.8c-0.6,0.5-1.2,0.4-1.8,0.1c-2.6-1.4-5.3-2.7-7.9-4c-0.4-0.2-0.7-0.2-1.1-0.1
		c-2.4,1-5,1.5-7.6,1.4c0-5.4,0-10.7,0-16.1c0.9-0.1,1.5-0.7,1.5-1.5c0-0.8-0.5-1.4-1.5-1.5c0-5.4,0-10.7,0-16.1
		C31.7,8.8,32.5,9,33.3,9c2,0.3,3.9,0.7,5.8,1.6c5.5,2.5,9.1,6.5,10.6,12.5C49.8,23.6,49.9,24.3,50,24.9z M36.7,27.9
		c0.8,0,1.5-0.6,1.5-1.4c0-0.8-0.6-1.5-1.4-1.5c-0.8,0-1.5,0.7-1.5,1.5C35.3,27.3,35.9,27.9,36.7,27.9z"/>
	<path class="st1" d="M30.9,44c2.6,0.1,5.2-0.4,7.6-1.4c0.4-0.2,0.7-0.1,1.1,0.1c2.6,1.4,5.3,2.7,7.9,4c0.6,0.3,1.2,0.4,1.8-0.1
		c0.6-0.5,0.6-1.1,0.4-1.8c-0.9-2.8-1.8-5.6-2.7-8.3c-0.1-0.3-0.1-0.5,0.1-0.8c1.5-2.3,2.5-4.8,2.8-7.5c0-0.1,0-0.1,0.1-0.2
		c0,7.2,0,14.3,0,21.5c0,0.3-0.1,0.4-0.4,0.4C33.1,50,16.5,50,0,50c0-9.3,0-18.6,0-27.9c0.1,0,0.1,0.1,0.1,0.2
		c0.3,2.8,1.2,5.3,2.8,7.6c0.2,0.3,0.2,0.5,0.1,0.8c-0.9,2.8-1.8,5.6-2.7,8.4c-0.2,0.5-0.1,1,0.2,1.4c0.5,0.7,1.2,0.8,2,0.4
		c2.7-1.4,5.4-2.7,8.1-4.1c0.3-0.2,0.6-0.2,0.9,0c1.6,0.7,3.3,1.1,5.1,1.3c0.5,0.4,0.9,0.9,1.4,1.3C21.7,42.4,26,44,30.9,44z"/>
	<path class="st2" d="M16.6,38c-1.8-0.2-3.5-0.6-5.1-1.3c-0.3-0.1-0.6-0.1-0.9,0c-2.7,1.4-5.4,2.7-8.1,4.1c-0.8,0.4-1.6,0.3-2-0.4
		c-0.3-0.4-0.3-0.9-0.2-1.4c0.9-2.8,1.8-5.6,2.7-8.4c0.1-0.3,0.1-0.5-0.1-0.8c-1.6-2.3-2.5-4.9-2.8-7.6c0-0.1,0-0.2-0.1-0.2
		c0-1,0-2,0-3c0.1-0.7,0.3-1.5,0.4-2.2c1.1-4.5,3.7-8,7.6-10.6c3.3-2.2,7-3.2,11-3.2c0,3.2,0,6.4,0,9.7c-1.1,0.9-2.2,1.8-3.1,3
		c-4,4.9-5,10.4-3,16.4C13.7,34.3,15,36.3,16.6,38z"/>
	<path class="st1" d="M19,3.1c-4,0-7.7,1-11,3.2c-3.9,2.5-6.5,6-7.6,10.6C0.3,17.6,0.2,18.3,0,19C0,12.8,0,6.6,0,0.4
		C0,0.1,0,0,0.4,0c16.4,0,32.8,0,49.2,0C50,0,50,0.1,50,0.4c0,8.2,0,16.3,0,24.5c-0.1-0.6-0.2-1.3-0.4-1.9
		c-1.4-5.9-5.1-10-10.6-12.5c-1.8-0.8-3.8-1.3-5.8-1.6c-0.6-0.7-1.3-1.3-2-1.8C27.7,4.4,23.6,3,19,3.1z"/>
	<path class="st3" d="M16.6,38c-1.6-1.7-2.9-3.7-3.6-5.9c-2-6-1-11.5,3-16.4c0.9-1.1,2-2.1,3.1-3c0.1-0.1,0.3-0.2,0.4-0.3
		c3.4-2.3,7.2-3.5,11.4-3.5c0,5.4,0,10.7,0,16.1l0,0c-0.8,0-1.5,0.6-1.5,1.4c0,0.8,0.6,1.4,1.5,1.5l0,0c0,5.4,0,10.7,0,16.1
		c-4.8,0-9.1-1.6-12.9-4.7C17.5,38.9,17,38.4,16.6,38z M25,27.9c0.8,0,1.5-0.7,1.5-1.4c0-0.8-0.6-1.5-1.4-1.5
		c-0.8,0-1.5,0.7-1.5,1.5C23.5,27.3,24.2,27.9,25,27.9z"/>
	<path class="st4" d="M30.9,8.9c-4.1,0-7.9,1.2-11.4,3.5c-0.1,0.1-0.3,0.2-0.4,0.3c0-3.2,0-6.4,0-9.7c4.5,0,8.6,1.3,12.3,4.1
		c0.7,0.5,1.4,1.1,2,1.8C32.5,9,31.7,8.8,30.9,8.9z"/>
	<path class="st5" d="M36.7,27.9c-0.8,0-1.5-0.7-1.5-1.5c0-0.8,0.7-1.5,1.5-1.5c0.8,0,1.4,0.7,1.4,1.5
		C38.2,27.3,37.5,27.9,36.7,27.9z"/>
	<path class="st6" d="M30.9,25c0.9,0.1,1.5,0.6,1.5,1.5c0,0.8-0.5,1.4-1.5,1.5c0,0,0,0,0,0C30.9,26.9,30.9,26,30.9,25L30.9,25z"/>
	<path class="st7" d="M25,27.9c-0.8,0-1.5-0.7-1.5-1.5c0-0.8,0.7-1.5,1.5-1.5c0.8,0,1.4,0.7,1.4,1.5C26.5,27.3,25.8,27.9,25,27.9z"
		/>
	<path class="st7" d="M30.9,25c0,1,0,1.9,0,2.9c-0.9,0-1.5-0.7-1.5-1.5C29.4,25.6,30,25.1,30.9,25z"/>
</g>
</svg>
