<?xml version="1.0" encoding="utf-8"?>
<!-- Generator: Adobe Illustrator 25.0.0, SVG Export Plug-In . SVG Version: 6.00 Build 0)  -->
<svg version="1.1" id="Calque_1" xmlns="http://www.w3.org/2000/svg" xmlns:xlink="http://www.w3.org/1999/xlink" x="0px" y="0px"
	 viewBox="0 0 50 50" style="enable-background:new 0 0 50 50;" xml:space="preserve">
<style type="text/css">
	.st0{fill:#FFFFFF;}
</style>
<g>
	<path class="st0" d="M50,50c-16.7,0-33.3,0-50,0C0,33.3,0,16.7,0,0c16.7,0,33.3,0,50,0C50,16.7,50,33.3,50,50z M25,42.1
		c2.2-0.1,4.4-0.1,6.7-0.3c2.3-0.2,4.5-0.5,6.8-0.8c1.6-0.2,2.6-1.5,2.7-3.2c0-0.9,0-1.8,0-2.7C41,31.9,38.9,29,35.8,28
		c-1.9-0.7-3.8-0.5-5.8,0.2c-3.3,1.2-6.7,1.2-10.1,0c-1.2-0.4-2.3-0.7-3.6-0.7c-3.5,0.1-6.6,2.6-7.3,6c-0.3,1.3-0.2,2.7-0.2,4.1
		c0,1.8,1.1,3.1,2.9,3.4C16.1,41.7,20.5,42.1,25,42.1z M17.1,15.6c0,4.3,3.5,7.8,7.8,7.8c4.3,0,7.8-3.5,7.8-7.7
		c0-4.3-3.5-7.8-7.8-7.9C20.7,7.8,17.2,11.2,17.1,15.6z"/>
	<path d="M25,42.1c-4.4-0.1-8.9-0.4-13.2-1.1c-1.8-0.3-2.9-1.5-2.9-3.4c0-1.4,0-2.8,0.2-4.1c0.7-3.4,3.8-5.8,7.3-6
		c1.3-0.1,2.4,0.3,3.6,0.7c3.4,1.2,6.7,1.2,10.1,0c1.9-0.7,3.8-0.9,5.8-0.2c3.1,1,5.2,3.9,5.3,7.1c0,0.9,0,1.8,0,2.7
		c0,1.7-1,2.9-2.7,3.2c-2.2,0.3-4.5,0.6-6.8,0.8C29.4,42,27.2,42,25,42.1z"/>
	<path d="M17.1,15.6c0-4.3,3.5-7.8,7.8-7.8c4.3,0,7.8,3.5,7.8,7.9c0,4.3-3.5,7.8-7.8,7.7C20.6,23.4,17.1,19.9,17.1,15.6z"/>
</g>
</svg>
